<?xml version="1.0" encoding="utf-8"?>
<!-- Generator: Adobe Illustrator 25.4.1, SVG Export Plug-In . SVG Version: 6.00 Build 0)  -->
<svg version="1.1" xmlns="http://www.w3.org/2000/svg" xmlns:xlink="http://www.w3.org/1999/xlink" x="0px" y="0px"
	 viewBox="0 0 800 800" style="enable-background:new 0 0 800 800;" xml:space="preserve">
<style type="text/css">
	.st0{fill:#00669B;}
	.st1{fill:#FFFFFF;}
</style>
<g id="图层_1">
</g>
<g id="图层_2">
</g>
<g id="图层_3">
	<g>
		<path class="st1" d="M650,800H150C67.16,800,0,732.84,0,650V150C0,67.16,67.16,0,150,0h500c82.84,0,150,67.16,150,150v500
			C800,732.84,732.84,800,650,800z"/>
		<g>
			<g>
				<g>
					<polygon class="st0" points="442.6,277.69 793.03,426.31 482.53,351.03 					"/>
					<polygon class="st0" points="497.48,378.49 780.39,467.63 522.37,424.22 					"/>
					<polygon class="st0" points="535.58,448.47 767.65,509.26 558.34,490.27 					"/>
					<path class="st0" d="M180.7,166.62l213.38,90.49l124.97,229.55l-189.41-17.18L122.98,303.17L71,182.49L180.7,166.62z
						 M145.93,283.63l193.09,155.44l125.38,10.48L115.3,212.54L145.93,283.63z"/>
					<path class="st0" d="M284.5,196.33l-60.81,10.72l-39.69-47.31l21.12-58.03L265.93,91l39.69,47.31L284.5,196.33z M258.59,111.16
						l-39.69,7l-13.78,37.87l25.91,30.87L258.59,111.16z M231.88,133.62l-12.98-15.46l-13.81,37.94l19.88-3.51L231.88,133.62z"/>
				</g>
			</g>
			<g>
				<polygon class="st0" points="95.52,652.01 125.83,503.42 173.2,475.1 287.21,475.1 229.37,509.94 203.53,509.94 179.75,524.16 
					176.87,538.5 218.48,538.5 212.24,569.06 170.62,569.06 156.04,640.38 136.24,652.01 				"/>
				<polygon class="st0" points="203.05,652.01 220.43,556.91 246.93,539.19 312.79,539.19 307.41,569.12 268.16,569.12 
					265.32,582.28 305.31,582.28 300.88,609.15 261.22,609.15 258.47,622.74 297.91,622.74 294.5,640.38 276.96,652.01 				"/>
				<polygon class="st0" points="390.62,652.01 383.02,609.15 364.8,652.01 317.01,652.01 314.35,556.91 334.13,539.19 
					354.04,539.19 355.39,582.28 376.43,539.19 409.7,539.19 416.94,582.28 433.43,539.19 472.66,539.19 445.42,630.28 
					423.16,652.01 				"/>
				<path class="st0" d="M456.24,651.75l16.4-88.81l25.99-24.14h99.98l-15.86,85.92l-28.22,27.02H456.24z M515.67,578.38
					l-6.71,42.39h15.78l10.49-9.88l7.55-41.85h-16.37L515.67,578.38z"/>
				<polygon class="st0" points="619.02,652.13 634.42,569.08 599,569.08 601.25,556.91 620.71,539.19 768.51,539.19 720.66,569.08 
					685.1,569.08 671.87,640.38 657.63,652.13 				"/>
			</g>
		</g>
	</g>
</g>
</svg>
