<?xml version="1.0" encoding="utf-8"?>
<!-- Generator: Adobe Illustrator 25.4.1, SVG Export Plug-In . SVG Version: 6.00 Build 0)  -->
<svg version="1.1" xmlns="http://www.w3.org/2000/svg" xmlns:xlink="http://www.w3.org/1999/xlink" x="0px" y="0px"
	 viewBox="0 0 3200 800" style="enable-background:new 0 0 3200 800;" xml:space="preserve">
<style type="text/css">
	.st0{fill:#00669B;}
	.st1{fill:#FFFFFF;}
	.st2{font-family:'SourceHanSansCN-Bold-GBpc-EUC-H';}
	.st3{font-size:117.9502px;}
	.st4{font-family:'YouSheBiaoTiHei';}
	.st5{font-size:335.4193px;}
	.st6{font-size:215.1563px;}
</style>
<g id="图层_1">
	<g>
		<g>
			<g>
				<polygon class="st0" points="-2766.58,299.51 -2426.85,443.59 -2727.87,370.61 				"/>
				<polygon class="st0" points="-2713.38,397.23 -2439.1,483.65 -2689.25,441.56 				"/>
				<polygon class="st0" points="-2676.44,465.08 -2451.45,524.01 -2654.38,505.6 				"/>
				<path class="st0" d="M-3020.49,191.82l206.87,87.73l121.16,222.55l-183.64-16.65l-200.35-161.24l-50.4-117L-3020.49,191.82z
					 M-3054.2,305.27l187.2,150.7l121.56,10.16l-338.45-229.79L-3054.2,305.27z"/>
				<path class="st0" d="M-2919.86,220.63l-58.96,10.4l-38.48-45.86l20.48-56.26l58.96-10.4l38.48,45.86L-2919.86,220.63z
					 M-2944.98,138.05l-38.48,6.79l-13.36,36.72l25.12,29.93L-2944.98,138.05z M-2970.87,159.83l-12.58-14.99l-13.39,36.78
					l19.27-3.4L-2970.87,159.83z"/>
			</g>
		</g>
		<g>
			<polygon class="st0" points="-3103.08,662.4 -3073.69,518.35 -3027.76,490.89 -2917.23,490.89 -2973.31,524.67 -2998.36,524.67 
				-3021.42,538.45 -3024.21,552.36 -2983.86,552.36 -2989.92,581.98 -3030.26,581.98 -3044.4,651.13 -3063.6,662.4 			"/>
			<polygon class="st0" points="-2998.82,662.4 -2981.98,570.2 -2956.28,553.02 -2892.43,553.02 -2897.65,582.04 -2935.7,582.04 
				-2938.46,594.8 -2899.69,594.8 -2903.98,620.85 -2942.43,620.85 -2945.1,634.03 -2906.86,634.03 -2910.16,651.13 -2927.17,662.4 
							"/>
			<polygon class="st0" points="-2816.98,662.4 -2824.35,620.85 -2842.01,662.4 -2888.34,662.4 -2890.92,570.2 -2871.74,553.02 
				-2852.44,553.02 -2851.13,594.8 -2830.73,553.02 -2798.48,553.02 -2791.46,594.8 -2775.47,553.02 -2737.44,553.02 
				-2763.85,641.34 -2785.43,662.4 			"/>
			<path class="st0" d="M-2753.36,662.16l15.9-86.1l25.2-23.4h96.93l-15.38,83.3l-27.36,26.2H-2753.36z M-2695.74,591.02
				l-6.51,41.09h15.3l10.17-9.58l7.32-40.57h-15.87L-2695.74,591.02z"/>
			<polygon class="st0" points="-2595.54,662.52 -2580.62,582.01 -2614.96,582.01 -2612.77,570.2 -2593.91,553.02 -2450.62,553.02 
				-2497,582.01 -2531.48,582.01 -2544.31,651.13 -2558.11,662.52 			"/>
		</g>
	</g>
	<text transform="matrix(0.9764 0 0 1 -2373.9131 660.5986)" class="st0 st2" style="font-size:109.6415px;">SHENZHEN FEWOT TECHNOLOGY CO., LTD</text>
	<text transform="matrix(0.6162 0 0 1 -2373.9131 542.0254)"><tspan x="0" y="0" class="st0 st4" style="font-size:311.7913px;">FEWOT</tspan><tspan x="1167.65" y="0" class="st0 st4" style="font-size:200px;"> </tspan><tspan x="1287.65" y="0" class="st0 st4" style="font-size:311.7913px;">TECHNOLOGY</tspan></text>
	<text transform="matrix(1 0 0 1 -80.0977 1636.6465)" class="st4" style="font-size:12px;"> </text>
</g>
<g id="图层_2">
	<g>
		<g>
			<g>
				<polygon class="st1" points="407.72,291.8 773.2,446.8 449.36,368.29 				"/>
				<polygon class="st1" points="464.95,396.92 760.02,489.89 490.92,444.61 				"/>
				<polygon class="st1" points="504.69,469.91 746.74,533.31 528.43,513.51 				"/>
				<path class="st1" d="M134.57,175.95l222.54,94.38l130.34,239.41l-197.55-17.92L74.37,318.37L20.15,192.5L134.57,175.95z
					 M98.3,297.99l201.38,162.12l130.77,10.93L66.36,223.84L98.3,297.99z"/>
				<path class="st1" d="M242.83,206.94l-63.43,11.18L138,168.79l22.03-60.52l63.43-11.18l41.4,49.34L242.83,206.94z M215.81,118.1
					l-41.4,7.3l-14.38,39.5l27.02,32.2L215.81,118.1z M187.95,141.53l-13.53-16.13l-14.4,39.57l20.73-3.66L187.95,141.53z"/>
			</g>
		</g>
		<g>
			<polygon class="st1" points="45.72,682.19 77.34,527.22 126.75,497.68 245.66,497.68 185.33,534.02 158.38,534.02 133.57,548.85 
				130.57,563.8 173.97,563.8 167.46,595.68 124.06,595.68 108.85,670.06 88.2,682.19 			"/>
			<polygon class="st1" points="157.88,682.19 176,583 203.65,564.52 272.34,564.52 266.72,595.74 225.79,595.74 222.82,609.47 
				264.53,609.47 259.91,637.49 218.54,637.49 215.67,651.67 256.81,651.67 253.26,670.06 234.96,682.19 			"/>
			<polygon class="st1" points="353.51,682.19 345.58,637.49 326.58,682.19 276.74,682.19 273.96,583 294.59,564.52 315.36,564.52 
				316.77,609.47 338.71,564.52 373.41,564.52 380.96,609.47 398.15,564.52 439.07,564.52 410.66,659.53 387.44,682.19 			"/>
			<path class="st1" d="M421.94,681.93l17.1-92.62l27.11-25.18h104.28l-16.54,89.61l-29.44,28.19H421.94z M483.93,605.4l-7,44.21
				h16.46l10.94-10.3l7.87-43.65h-17.08L483.93,605.4z"/>
			<polygon class="st1" points="591.72,682.32 607.78,595.71 570.84,595.71 573.19,583 593.48,564.52 747.63,564.52 697.73,595.71 
				660.64,595.71 646.84,670.06 631.99,682.32 			"/>
		</g>
	</g>
	<text transform="matrix(0.9764 0 0 1 830.1465 680.25)" class="st1 st2 st3">SHENZHEN FEWOT TECHNOLOGY CO., LTD</text>
	<text transform="matrix(0.6162 0 0 1 830.1465 552.6904)"><tspan x="0" y="0" class="st1 st4 st5">FEWOT</tspan><tspan x="1256.13" y="0" class="st1 st4 st6"> </tspan><tspan x="1385.22" y="0" class="st1 st4 st5">TECHNOLOGY</tspan></text>
</g>
</svg>
