<?xml version="1.0" encoding="utf-8"?>
<!-- Generator: Adobe Illustrator 25.4.1, SVG Export Plug-In . SVG Version: 6.00 Build 0)  -->
<svg version="1.1" xmlns="http://www.w3.org/2000/svg" xmlns:xlink="http://www.w3.org/1999/xlink" x="0px" y="0px"
	 viewBox="0 0 3200 800" style="enable-background:new 0 0 3200 800;" xml:space="preserve">
<style type="text/css">
	.st0{fill:#00669B;}
	.st1{fill:#FFFFFF;}
</style>
<g id="edit_00000176736198004205062180000004868271920091819667_">
</g>
<g id="图层_1">
</g>
<g id="图层_2">
	<path class="st1" d="M407.72,291.8l365.48,155l-323.84-78.51L407.72,291.8z M490.92,444.61l269.1,45.28l-295.06-92.97
		L490.92,444.61z M528.43,513.51l218.31,19.8l-242.05-63.4L528.43,513.51z M20.15,192.5l54.22,125.87l215.53,173.46l197.55,17.92
		L357.11,270.33l-222.54-94.38L20.15,192.5z M66.36,223.84l364.09,247.2l-130.77-10.93L98.3,297.99L66.36,223.84z M264.86,146.42
		l-41.4-49.34l-63.43,11.18L138,168.79l41.4,49.34l63.43-11.18L264.86,146.42z M187.05,197.1l-27.02-32.2l14.38-39.5l41.4-7.3
		L187.05,197.1z M180.75,161.31l-20.73,3.66l14.4-39.57l13.53,16.13L180.75,161.31z M88.2,682.19l20.65-12.13l15.21-74.38h43.4
		l6.51-31.87h-43.4l3-14.96l24.81-14.83l26.95,0l60.33-36.33H126.75l-49.41,29.54L45.72,682.19H88.2z M234.96,682.19l18.3-12.13
		l3.56-18.39h-41.14l2.87-14.18h41.37l4.61-28.02h-41.7l2.97-13.73h40.94l5.61-31.22h-68.69L176,583l-18.13,99.19H234.96z
		 M387.44,682.19l23.22-22.66l28.41-95.01h-40.92l-17.2,44.95l-7.55-44.95h-34.7l-21.94,44.95l-1.41-44.95h-20.77L273.96,583
		l2.78,99.19h49.84l19-44.7l7.93,44.7H387.44z M524.45,681.93l29.44-28.19l16.54-89.61H466.16l-27.11,25.18l-17.1,92.62H524.45z
		 M495.13,595.66h17.08l-7.87,43.65l-10.94,10.3h-16.46l7-44.21L495.13,595.66z M631.99,682.32l14.85-12.26l13.79-74.35h37.09
		l49.9-31.18H593.48L573.19,583l-2.35,12.7h36.94l-16.06,86.62H631.99z M834.98,669.16l9.79-12.03c5.99,5.78,14.17,9.67,21.65,9.67
		c8.87,0,13.59-3.89,13.59-10.03c0-6.49-5.3-8.49-12.9-11.8l-11.29-5.07c-8.64-3.54-17.39-10.62-17.39-23.35
		c0-14.15,12.32-25.24,29.48-25.24c10.02,0,19.92,4.13,26.83,11.32l-8.64,10.85c-5.41-4.48-11.06-7.2-18.2-7.2
		c-7.49,0-12.09,3.42-12.09,9.2c0,6.25,5.99,8.49,13.25,11.56l11.17,4.6c10.37,4.36,17.16,11.21,17.16,23.83
		c0,14.27-11.63,26.42-31.33,26.42C854.68,681.9,843.28,677.42,834.98,669.16z M912.49,592.85h17.05v34.56h32.25v-34.56h16.93v87.4
		h-16.93v-37.74h-32.25v37.74h-17.05V592.85z M999.67,592.85h52.29v14.63h-35.24v20.17h29.83v14.62h-29.83v23.35h36.51v14.63h-53.56
		V592.85z M1070.5,592.85h17.39l24.76,46.59l8.64,18.87h0.58c-0.92-9.08-2.3-20.64-2.3-30.55v-34.91h16.12v87.4h-17.39l-24.53-46.71
		l-8.64-18.75h-0.58c0.69,9.44,2.19,20.41,2.19,30.43v35.03h-16.24V592.85z M1151.23,669.75l39.74-62.28h-35.93v-14.63h56.9v10.5
		l-39.73,62.28h40.08v14.63h-61.04V669.75z M1227.35,592.85h17.05v34.56h32.25v-34.56h16.93v87.4h-16.93v-37.74h-32.25v37.74h-17.05
		V592.85z M1314.53,592.85h52.29v14.63h-35.24v20.17h29.83v14.62h-29.83v23.35h36.51v14.63h-53.56V592.85z M1385.36,592.85h17.39
		l24.76,46.59l8.64,18.87h0.58c-0.92-9.08-2.3-20.64-2.3-30.55v-34.91h16.12v87.4h-17.39l-24.53-46.71l-8.64-18.75h-0.58
		c0.69,9.44,2.19,20.41,2.19,30.43v35.03h-16.24V592.85z M1497.76,592.85h52.52v14.63h-35.47v22.76h30.29v14.63h-30.29v35.38h-17.05
		V592.85z M1565.13,592.85h52.29v14.63h-35.24v20.17h29.83v14.62h-29.83v23.35h36.51v14.63h-53.56V592.85z M1627.66,592.85h17.39
		l6.57,42.7c1.38,9.2,2.76,18.4,4.03,27.84h0.46c1.73-9.44,3.57-18.75,5.41-27.84l9.79-42.7h14.63l9.91,42.7
		c1.96,8.96,3.57,18.4,5.41,27.84h0.58c1.27-9.44,2.53-18.75,3.8-27.84l6.79-42.7h16.12l-15.78,87.4h-21.19l-9.56-43.29
		c-1.38-6.72-2.65-13.45-3.57-20.05h-0.46c-1.27,6.61-2.53,13.33-3.8,20.05l-9.33,43.29h-20.85L1627.66,592.85z M1736.73,636.14
		c0-28.31,15.55-44.82,38.12-44.82s38.12,16.51,38.12,44.82c0,28.43-15.55,45.76-38.12,45.76S1736.73,664.56,1736.73,636.14z
		 M1795.58,636.14c0-18.64-8.06-29.84-20.73-29.84s-20.62,11.21-20.62,29.84c0,18.64,7.95,30.67,20.62,30.67
		S1795.58,654.77,1795.58,636.14z M1843.03,607.47h-23.96v-14.63h65.07v14.63h-24.07v72.78h-17.05V607.47z M1941.15,607.47h-23.96
		v-14.63h65.07v14.63h-24.07v72.78h-17.05V607.47z M1996.2,592.85h52.29v14.63h-35.24v20.17h29.83v14.62h-29.83v23.35h36.51v14.63
		h-53.56V592.85z M2062.76,636.96c0-28.78,18.08-45.65,39.62-45.65c10.94,0,19.46,5.31,24.99,11.21l-8.87,11.09
		c-4.38-4.25-9.33-7.31-15.78-7.31c-12.9,0-22.46,11.32-22.46,30.08c0,18.99,8.64,30.43,22.11,30.43c7.37,0,13.01-3.54,17.51-8.61
		l9.1,10.85c-7.03,8.37-16.12,12.86-27.3,12.86C2080.27,681.9,2062.76,666.1,2062.76,636.96z M2142.57,592.85h17.05v34.56h32.25
		v-34.56h16.93v87.4h-16.93v-37.74h-32.25v37.74h-17.05V592.85z M2229.75,592.85h17.39l24.76,46.59l8.64,18.87h0.58
		c-0.92-9.08-2.3-20.64-2.3-30.55v-34.91h16.12v87.4h-17.39l-24.53-46.71l-8.64-18.75h-0.58c0.69,9.44,2.19,20.41,2.19,30.43v35.03
		h-16.24V592.85z M2311.75,636.14c0-28.31,15.55-44.82,38.12-44.82s38.12,16.51,38.12,44.82c0,28.43-15.55,45.76-38.12,45.76
		S2311.75,664.56,2311.75,636.14z M2370.6,636.14c0-18.64-8.06-29.84-20.73-29.84s-20.62,11.21-20.62,29.84
		c0,18.64,7.95,30.67,20.62,30.67S2370.6,654.77,2370.6,636.14z M2404.69,592.85h17.05v72.78h34.67v14.63h-51.71V592.85z
		 M2462.61,636.14c0-28.31,15.55-44.82,38.12-44.82s38.12,16.51,38.12,44.82c0,28.43-15.55,45.76-38.12,45.76
		S2462.61,664.56,2462.61,636.14z M2521.47,636.14c0-18.64-8.06-29.84-20.73-29.84s-20.62,11.21-20.62,29.84
		c0,18.64,7.95,30.67,20.62,30.67S2521.47,654.77,2521.47,636.14z M2551.29,636.96c0-28.78,18.2-45.65,40.89-45.65
		c12.32,0,20.85,5.43,26.38,11.21l-9.1,11.09c-4.26-4.13-9.1-7.31-16.7-7.31c-14.28,0-23.96,11.32-23.96,30.08
		c0,18.99,8.41,30.43,25.22,30.43c4.03,0,8.29-1.18,10.6-3.3v-17.22h-15.09v-14.27h30.41v39.4c-5.87,5.9-16.01,10.5-27.76,10.5
		C2569.03,681.9,2551.29,666.1,2551.29,636.96z M2652.64,648.29l-25.68-55.44h18.08l8.52,21.35c2.42,6.49,4.72,12.62,7.37,19.34
		h0.46c2.65-6.72,5.07-12.86,7.6-19.34l8.52-21.35h17.74l-25.68,55.44v31.96h-16.93V648.29z M2726.8,636.96
		c0-28.78,18.08-45.65,39.62-45.65c10.94,0,19.46,5.31,24.99,11.21l-8.87,11.09c-4.38-4.25-9.33-7.31-15.78-7.31
		c-12.9,0-22.46,11.32-22.46,30.08c0,18.99,8.64,30.43,22.11,30.43c7.37,0,13.01-3.54,17.51-8.61l9.1,10.85
		c-7.03,8.37-16.12,12.86-27.3,12.86C2744.31,681.9,2726.8,666.1,2726.8,636.96z M2797.86,636.14c0-28.31,15.55-44.82,38.12-44.82
		s38.12,16.51,38.12,44.82c0,28.43-15.55,45.76-38.12,45.76S2797.86,664.56,2797.86,636.14z M2856.71,636.14
		c0-18.64-8.06-29.84-20.73-29.84s-20.62,11.21-20.62,29.84c0,18.64,7.95,30.67,20.62,30.67S2856.71,654.77,2856.71,636.14z
		 M2888.5,670.58c0-6.49,4.49-11.32,10.6-11.32c5.99,0,10.48,4.84,10.48,11.32c0,6.37-4.49,11.32-10.48,11.32
		C2892.99,681.9,2888.5,676.95,2888.5,670.58z M2923.85,696.06c8.87-3.54,13.82-9.55,13.94-16.4l-1.15,0.12
		c-5.53,0-10.6-3.66-10.6-10.26c0-6.25,4.95-10.26,11.06-10.26c7.72,0,12.09,6.37,12.09,17.1c0,13.8-7.83,24.3-21.77,29.13
		L2923.85,696.06z M2991.8,592.85h17.05v72.78h34.67v14.63h-51.71V592.85z M3059.63,607.47h-23.96v-14.63h65.07v14.63h-24.07v72.78
		h-17.05V607.47z M3114.68,592.85h23.38c26.14,0,42.15,13.92,42.15,43.29c0,29.49-16.01,44.11-41.23,44.11h-24.3V592.85z
		 M3136.91,666.1c16.01,0,25.91-8.73,25.91-29.96c0-21.23-9.9-29.25-25.91-29.25h-5.18v59.21H3136.91z M966.35,342.72l-1.86,32.2
		h-71.51l-3.93,54.67h65.52l-2.07,32.2h-67.38l-5.99,70.77h-39.68l15.92-177.1l-5.99-12.75H966.35z M1106.9,342.72l-1.86,32.2
		h-65.52l-3.93,41.59h61.39l-1.86,32.2h-63.66l-3.93,51.65h69.45l-1.86,32.2h-111.2l15.92-177.1l-5.99-12.75H1106.9z
		 M1192.88,349.09h31.83l5.79,109.35l27.9-115.72h33.69l-47.54,189.85h-35.76l-8.06-93.25l-23.77,93.25h-35.76l-13.85-183.47
		l-3.93-6.37h37.62l5.99,115.72L1192.88,349.09z M1435.12,342.72c1.93,0,3.72,0.56,5.37,1.68c1.65,1.12,3.07,2.68,4.24,4.7
		c1.17,2.01,1.96,4.36,2.38,7.04s0.34,5.7-0.21,9.06l-13.85,167.37h-111.2c-1.93,0-3.72-0.56-5.37-1.68
		c-1.65-1.12-3.07-2.68-4.24-4.7c-1.17-2.01-1.96-4.41-2.38-7.21c-0.41-2.79-0.35-5.75,0.21-8.89l13.85-167.37H1435.12z
		 M1359.68,374.92l-9.92,125.45h45.68l11.78-125.45H1359.68z M1495.68,532.57l13.85-157.65h-43.61l2.07-32.2h126.91l-3.93,32.2
		h-41.75l-13.85,157.65H1495.68z M1722.8,532.57l13.85-157.65h-43.61l2.07-32.2h126.91l-3.93,32.2h-41.75l-13.85,157.65H1722.8z
		 M1963.59,342.72l-1.86,32.2h-65.52l-3.93,41.59h61.39l-1.86,32.2h-63.66l-3.93,51.65h69.45l-1.86,32.2h-111.2l15.92-177.1
		l-5.99-12.75H1963.59z M1987.98,530.89c-1.65-1.12-3.07-2.68-4.24-4.7c-1.17-2.01-1.96-4.41-2.38-7.21
		c-0.41-2.79-0.35-5.75,0.21-8.89l13.85-167.37h125.05l-2.07,32.2h-87.22l-9.92,125.45h77.3l9.92-12.75l-3.93,44.95h-111.2
		C1991.42,532.57,1989.63,532.01,1987.98,530.89z M2193.63,342.72l-5.99,73.79h46.09l5.58-61.05l-5.99-12.75h45.68l-15.92,189.85
		h-39.68l7.85-83.85h-46.3l-7.23,83.85h-39.68l15.92-180.46l-8.06-9.39H2193.63z M2353.19,342.72l41.54,119.07l9.92-119.07h33.9
		l-15.92,189.85h-39.68l-39.68-116.06l-9.92,116.06h-35.76l15.92-177.1l-8.06-12.75H2353.19z M2582.61,342.72
		c1.93,0,3.72,0.56,5.37,1.68c1.65,1.12,3.07,2.68,4.24,4.7c1.17,2.01,1.96,4.36,2.38,7.04s0.34,5.7-0.21,9.06l-13.85,167.37h-111.2
		c-1.93,0-3.72-0.56-5.37-1.68c-1.65-1.12-3.07-2.68-4.24-4.7c-1.17-2.01-1.96-4.41-2.38-7.21c-0.41-2.79-0.35-5.75,0.21-8.89
		l13.85-167.37H2582.61z M2507.17,374.92l-9.92,125.45h45.68l11.78-125.45H2507.17z M2666.94,342.72l-13.85,157.65h77.3l-1.86,32.2
		H2625.4c-4,0-7-2.12-8.99-6.37c-2-4.25-3-9.61-3-16.1l11.99-154.63l-5.99-12.75H2666.94z M2871.35,342.72
		c1.93,0,3.72,0.56,5.37,1.68c1.65,1.12,3.07,2.68,4.24,4.7c1.17,2.01,1.96,4.36,2.38,7.04s0.34,5.7-0.21,9.06l-13.85,167.37h-111.2
		c-1.93,0-3.72-0.56-5.37-1.68c-1.65-1.12-3.07-2.68-4.24-4.7c-1.17-2.01-1.96-4.41-2.38-7.21c-0.41-2.79-0.35-5.75,0.21-8.89
		l13.85-167.37H2871.35z M2795.91,374.92l-9.92,125.45h45.68l11.78-125.45H2795.91z M3037.53,397.39h-39.68l1.86-22.47h-47.54
		l-9.92,125.45h47.54l2.07-38.57l-11.99-32.2h53.53l-7.85,102.97h-111.2c-1.93,0-3.72-0.56-5.37-1.68c-1.65-1.12-3.07-2.68-4.24-4.7
		c-1.17-2.01-1.96-4.41-2.38-7.21c-0.41-2.79-0.35-5.75,0.21-8.89l13.85-167.37h125.05L3037.53,397.39z M3150.18,349.09l-3.93-6.37
		h47.54l-57.46,112.7l-5.99,77.15h-39.68l5.99-77.15l-33.69-103.31l-5.99-9.39h41.75l21.7,70.77L3150.18,349.09z"/>
</g>
<g id="图层_3">
</g>
</svg>
